<svg xmlns="http://www.w3.org/2000/svg" viewBox="0 0 96 96" fill="none">
  <defs>
    <linearGradient id="fw1" x1="0" y1="0" x2="1" y2="1">
      <stop offset="0%" stop-color="#FF6F61"/>
      <stop offset="50%" stop-color="#FFB347"/>
      <stop offset="100%" stop-color="#FFDA44"/>
    </linearGradient>
    <linearGradient id="fw2" x1="0" y1="0" x2="1" y2="1">
      <stop offset="0%" stop-color="#FFDA44"/>
      <stop offset="50%" stop-color="#7BC67E"/>
      <stop offset="100%" stop-color="#29ABE2"/>
    </linearGradient>
    <linearGradient id="fw3" x1="0" y1="1" x2="1" y2="0">
      <stop offset="0%" stop-color="#29ABE2"/>
      <stop offset="50%" stop-color="#7B68EE"/>
      <stop offset="100%" stop-color="#9B59B6"/>
    </linearGradient>
  </defs>
  <!-- Three overlapping petals forming the Freshworks leaf -->
  <path d="M48 12C48 12 78 28 78 56C78 72 64 84 48 84C32 84 18 72 18 56C18 42 30 30 48 30V12Z" fill="url(#fw1)" opacity=".85"/>
  <path d="M48 12C48 12 20 28 20 56C20 72 34 84 48 84V30C36 30 26 42 26 56" fill="url(#fw2)" opacity=".75"/>
  <path d="M48 30C60 30 72 40 72 56C72 70 62 80 48 84V30Z" fill="url(#fw3)" opacity=".8"/>
  <!-- Central vein -->
  <path d="M48 24V76" stroke="#fff" stroke-width="2.5" stroke-linecap="round" opacity=".5"/>
</svg>
