<svg xmlns="http://www.w3.org/2000/svg" viewBox="0 0 480 300" fill="none" role="img" aria-label="Verträge DSGVO und Paragraph 203">
  <defs>
    <linearGradient id="bg2" x1="0" y1="0" x2="480" y2="300" gradientUnits="userSpaceOnUse"><stop stop-color="#002d62"/><stop offset="1" stop-color="#001532"/></linearGradient>
    <radialGradient id="gl2" cx="0" cy="0" r="1" gradientUnits="userSpaceOnUse" gradientTransform="translate(110 60) rotate(60) scale(210)"><stop stop-color="#f97316" stop-opacity="0.3"/><stop offset="1" stop-color="#f97316" stop-opacity="0"/></radialGradient>
  </defs>
  <rect width="480" height="300" fill="url(#bg2)"/>
  <rect width="480" height="300" fill="url(#gl2)"/>
  <rect x="168" y="56" width="144" height="188" rx="16" fill="#ffffff" fill-opacity="0.1" stroke="#ffffff" stroke-opacity="0.5" stroke-width="2.5"/>
  <g fill="#ffffff" fill-opacity="0.34">
    <rect x="190" y="86" width="100" height="9" rx="4.5"/>
    <rect x="190" y="106" width="100" height="9" rx="4.5"/>
    <rect x="190" y="126" width="70" height="9" rx="4.5"/>
  </g>
  <path d="M190 196 c14 -18 26 -18 34 0 c8 14 18 14 26 -2 c6 -12 16 -12 30 4" fill="none" stroke="#f97316" stroke-width="6" stroke-linecap="round"/>
  <circle cx="300" cy="212" r="26" fill="#f97316"/>
  <path d="M289 212 l8 8 l15 -18" fill="none" stroke="#ffffff" stroke-width="6" stroke-linecap="round" stroke-linejoin="round"/>
</svg>
