<?xml version="1.0" encoding="UTF-8" standalone="no"?>
<!-- Created with Inkscape (http://www.inkscape.org/) -->

<svg
   version="1.1"
   id="svg1"
   width="125.86257"
   height="118.812"
   viewBox="0 0 125.86257 118.812"
   xmlns:xlink="http://www.w3.org/1999/xlink"
   xmlns="http://www.w3.org/2000/svg"
   xmlns:svg="http://www.w3.org/2000/svg">
  <defs
     id="defs1">
    <linearGradient
       x1="0"
       y1="0"
       x2="1"
       y2="0"
       gradientUnits="userSpaceOnUse"
       gradientTransform="matrix(-31.660805,57.369581,57.369581,31.660805,315.32441,252.64348)"
       spreadMethod="pad"
       id="linearGradient2">
      <stop
         style="stop-opacity:1;stop-color:#004172"
         offset="0"
         id="stop1" />
      <stop
         style="stop-opacity:1;stop-color:#33f8fb"
         offset="1"
         id="stop2" />
    </linearGradient>
    <linearGradient
       xlink:href="#linearGradient2"
       id="linearGradient13"
       gradientUnits="userSpaceOnUse"
       gradientTransform="matrix(-31.660805,57.369581,57.369581,31.660805,139.87071,270.8957)"
       x1="0"
       y1="0"
       x2="1"
       y2="0"
       spreadMethod="pad" />
  </defs>
  <g
     id="layer10"
     transform="translate(-60.722797,-243.47652)">
    <rect
       style="fill:none;fill-opacity:1;stroke-width:1.10571"
       id="rect6-2-1-47"
       width="125.86257"
       height="118.812"
       x="60.722797"
       y="243.47652" />
    <path
       id="path2-3-9"
       d="m 87.400306,290.05934 c 4.576,-11.68267 16.573404,-20.02 30.654704,-20.02 v 0 c 18.024,0 32.6347,13.65867 32.6347,30.50933 v 0 c 0,11.11867 -6.3627,19.012 -15.728,24.90934 v 0 c -6.6947,4.064 -2.0467,14.584 5.8066,10.63333 v 0 c 12.7187,-7.276 19.1427,-22.71867 19.02,-34.80133 v 0 c 0,-20.208 -16.604,-36.59067 -37.0853,-36.59067 v 0 c -16.5093,0 -30.497304,10.64667 -35.302704,25.36 m 1.0254,33.192 c 0,1.972 1.5973,3.57067 3.5693,3.57067 v 0 c 1.9733,0 3.572,-1.6 3.572,-3.57067 v 0 c 0,-1.972 -1.5987,-3.57067 -3.572,-3.57067 v 0 c -1.972,0 -3.5693,1.59867 -3.5693,3.57067 m 10.184,8.71867 c 0,2.54 2.058604,4.596 4.597304,4.596 v 0 c 2.5373,0 4.596,-2.056 4.596,-4.596 v 0 c 0,-2.53734 -2.0587,-4.59734 -4.596,-4.59734 v 0 c -2.5387,0 -4.597304,2.06 -4.597304,4.59734 m 16.340004,3.36933 c 0,3.38933 2.7466,6.136 6.1346,6.136 v 0 c 3.3894,0 6.136,-2.74667 6.136,-6.136 v 0 c 0,-3.38667 -2.7466,-6.13333 -6.136,-6.13333 v 0 c -3.388,0 -6.1346,2.74666 -6.1346,6.13333"
       style="fill:url(#linearGradient13);stroke:none;stroke-width:1.33333" />
    <path
       style="font-weight:600;font-size:37.3333px;font-family:Geist;-inkscape-font-specification:'Geist Semi-Bold';fill:#04507d"
       d="m 110.91769,312.80988 v -26.50665 h 9.93066 q 4.85333,0 7.35466,1.71733 2.53867,1.71734 2.53867,5.45067 0,1.67999 -0.70934,2.94933 -0.67199,1.232 -2.01599,1.94133 -1.30667,0.70933 -3.17333,0.784 l -0.0373,-0.0747 q 3.39733,0.112 5.22666,1.86667 1.82934,1.71733 1.82934,4.59199 0,3.65867 -2.53867,5.488 -2.50133,1.792 -7.13066,1.792 z m 4.85333,-4.10667 h 6.19733 q 2.27733,0 3.584,-0.93333 1.344,-0.93333 1.344,-2.76266 0,-1.82934 -1.30667,-2.8 -1.30666,-0.97067 -3.62133,-0.97067 h -6.19733 z m 0,-11.27465 h 4.928 q 2.38933,0 3.73333,-0.896 1.344,-0.896 1.344,-2.61334 0,-1.79199 -1.30667,-2.65066 -1.30666,-0.85867 -3.77066,-0.85867 h -4.928 z"
       id="text5-7-0-6"
       aria-label="B" />
  </g>
</svg>
