<?xml version="1.0" encoding="UTF-8" standalone="no"?>
<!-- Created with Inkscape (http://www.inkscape.org/) -->

<svg
   version="1.1"
   id="svg1"
   width="125.86257"
   height="118.812"
   viewBox="0 0 125.86257 118.812"
   xmlns:xlink="http://www.w3.org/1999/xlink"
   xmlns="http://www.w3.org/2000/svg"
   xmlns:svg="http://www.w3.org/2000/svg">
  <defs
     id="defs1">
    <linearGradient
       x1="0"
       y1="0"
       x2="1"
       y2="0"
       gradientUnits="userSpaceOnUse"
       gradientTransform="matrix(-31.660805,57.369581,57.369581,31.660805,315.32441,252.64348)"
       spreadMethod="pad"
       id="linearGradient2">
      <stop
         style="stop-opacity:1;stop-color:#004172"
         offset="0"
         id="stop1" />
      <stop
         style="stop-opacity:1;stop-color:#33f8fb"
         offset="1"
         id="stop2" />
    </linearGradient>
    <linearGradient
       xlink:href="#linearGradient2"
       id="linearGradient14"
       gradientUnits="userSpaceOnUse"
       gradientTransform="matrix(-31.660805,57.369581,57.369581,31.660805,139.02968,410.02697)"
       x1="0"
       y1="0"
       x2="1"
       y2="0"
       spreadMethod="pad" />
  </defs>
  <g
     id="layer9"
     transform="translate(-59.881775,-382.60779)">
    <rect
       style="fill:none;fill-opacity:1;stroke-width:1.10571"
       id="rect6-2-1-47-8"
       width="125.86257"
       height="118.812"
       x="59.881775"
       y="382.60779" />
    <path
       id="path2-3-9-4"
       d="m 86.559283,429.19061 c 4.576,-11.68267 16.573397,-20.02 30.654697,-20.02 v 0 c 18.024,0 32.6347,13.65867 32.6347,30.50933 v 0 c 0,11.11867 -6.3627,19.012 -15.728,24.90934 v 0 c -6.6947,4.064 -2.0467,14.584 5.8066,10.63333 v 0 c 12.7187,-7.276 19.1427,-22.71867 19.02,-34.80133 v 0 c 0,-20.208 -16.604,-36.59067 -37.0853,-36.59067 v 0 c -16.5093,0 -30.497297,10.64667 -35.302697,25.36 m 1.0254,33.192 c 0,1.972 1.5973,3.57067 3.5693,3.57067 v 0 c 1.9733,0 3.572,-1.6 3.572,-3.57067 v 0 c 0,-1.972 -1.5987,-3.57067 -3.572,-3.57067 v 0 c -1.972,0 -3.5693,1.59867 -3.5693,3.57067 m 10.184,8.71867 c 0,2.54 2.0586,4.596 4.597297,4.596 v 0 c 2.5373,0 4.596,-2.056 4.596,-4.596 v 0 c 0,-2.53734 -2.0587,-4.59734 -4.596,-4.59734 v 0 c -2.538697,0 -4.597297,2.06 -4.597297,4.59734 m 16.339997,3.36933 c 0,3.38933 2.7466,6.136 6.1346,6.136 v 0 c 3.3894,0 6.136,-2.74667 6.136,-6.136 v 0 c 0,-3.38667 -2.7466,-6.13333 -6.136,-6.13333 v 0 c -3.388,0 -6.1346,2.74666 -6.1346,6.13333"
       style="fill:url(#linearGradient14);stroke:none;stroke-width:1.33333" />
    <path
       style="font-weight:600;font-size:37.3333px;font-family:Geist;-inkscape-font-specification:'Geist Semi-Bold';fill:#ffffff"
       d="m 110.07669,451.94116 v -26.50664 h 9.93066 q 4.85333,0 7.35466,1.71733 2.53866,1.71733 2.53866,5.45066 0,1.68 -0.70933,2.94933 -0.672,1.232 -2.016,1.94133 -1.30666,0.70934 -3.17333,0.784 l -0.0373,-0.0747 q 3.39733,0.112 5.22666,1.86666 1.82933,1.71733 1.82933,4.592 0,3.65866 -2.53866,5.48799 -2.50133,1.792 -7.13066,1.792 z m 4.85333,-4.10666 h 6.19733 q 2.27733,0 3.584,-0.93333 1.34399,-0.93334 1.34399,-2.76267 0,-1.82933 -1.30666,-2.8 -1.30667,-0.97066 -3.62133,-0.97066 h -6.19733 z m 0,-11.27466 h 4.928 q 2.38933,0 3.73333,-0.896 1.34399,-0.896 1.34399,-2.61333 0,-1.792 -1.30666,-2.65066 -1.30667,-0.85867 -3.77066,-0.85867 h -4.928 z"
       id="text5-7-0-6-5"
       aria-label="B" />
  </g>
</svg>
