<?xml version="1.0" encoding="UTF-8" standalone="no"?>
<!-- Created with Inkscape (http://www.inkscape.org/) -->

<svg
   version="1.1"
   id="svg1"
   width="327.59933"
   height="118.812"
   viewBox="0 0 327.59933 118.812"
   xmlns:xlink="http://www.w3.org/1999/xlink"
   xmlns="http://www.w3.org/2000/svg"
   xmlns:svg="http://www.w3.org/2000/svg">
  <defs
     id="defs1">
    <linearGradient
       x1="0"
       y1="0"
       x2="1"
       y2="0"
       gradientUnits="userSpaceOnUse"
       gradientTransform="matrix(-31.660805,57.369581,57.369581,31.660805,315.32441,252.64348)"
       spreadMethod="pad"
       id="linearGradient2">
      <stop
         style="stop-opacity:1;stop-color:#004172"
         offset="0"
         id="stop1" />
      <stop
         style="stop-opacity:1;stop-color:#33f8fb"
         offset="1"
         id="stop2" />
    </linearGradient>
    <linearGradient
       xlink:href="#linearGradient2"
       id="linearGradient10"
       gradientUnits="userSpaceOnUse"
       gradientTransform="matrix(-31.660805,57.369581,57.369581,31.660805,318.13551,261.27766)"
       x1="0"
       y1="0"
       x2="1"
       y2="0"
       spreadMethod="pad" />
  </defs>
  <g
     id="layer1"
     transform="translate(-238.98763,-233.85847)">
    <rect
       style="fill:none;fill-opacity:1;stroke-width:1.78387"
       id="rect6-2-1-6"
       width="327.59933"
       height="118.812"
       x="238.98763"
       y="233.85847" />
    <g
       id="text5-74-7"
       style="font-size:37.3333px;font-family:Geist;-inkscape-font-specification:Geist"
       aria-label="bluebatch">
      <path
         style="font-weight:600;-inkscape-font-specification:'Geist Semi-Bold'"
         d="m 375.6526,306.74179 q -2.09066,0 -3.65866,-0.896 -1.53066,-0.896 -2.38933,-2.50133 l -0.112,2.94933 h -4.55466 v -26.50664 h 4.77866 v 9.40799 q 0.82133,-1.38133 2.352,-2.31466 1.53066,-0.97067 3.58399,-0.97067 2.576,0 4.44267,1.30667 1.904,1.26933 2.91199,3.62133 1.04534,2.31466 1.04534,5.48799 0,3.17333 -1.04534,5.52533 -1.00799,2.31466 -2.91199,3.62133 -1.86667,1.26933 -4.44267,1.26933 z m -1.08266,-3.88266 q 2.05333,0 3.28533,-1.71733 1.232,-1.75467 1.232,-4.816 0,-3.09866 -1.232,-4.81599 -1.19467,-1.71734 -3.248,-1.71734 -1.53066,0 -2.65066,0.784 -1.08267,0.74667 -1.68,2.20267 -0.56,1.456 -0.56,3.54666 0,2.016 0.56,3.50933 0.59733,1.456 1.68,2.24 1.08266,0.784 2.61333,0.784 z m 18.14403,3.43466 q -2.16534,0 -3.472,-1.12 -1.30667,-1.12 -1.30667,-3.58399 v -21.80265 h 4.77867 v 21.31731 q 0,0.74667 0.37333,1.12 0.41066,0.37334 1.12,0.37334 h 1.456 v 3.69599 z m 12.56642,0.448 q -3.024,0 -4.816,-1.97866 -1.75466,-2.016 -1.75466,-5.56266 v -12.84266 h 4.77866 v 11.64799 q 0,2.50133 0.82133,3.696 0.85867,1.15733 2.576,1.15733 1.94133,0 2.98667,-1.26933 1.08266,-1.30667 1.08266,-3.77067 v -11.46132 h 4.77866 v 19.93598 h -4.36799 l -0.112,-5.48799 0.59733,0.18666 q -0.448,2.83733 -2.128,4.29333 -1.68,1.456 -4.44266,1.456 z m 23.96797,0 q -2.98666,0 -5.18933,-1.26933 -2.20266,-1.30667 -3.39733,-3.65866 -1.19466,-2.352 -1.19466,-5.488 0,-3.136 1.19466,-5.45066 1.19467,-2.352 3.36,-3.65866 2.20267,-1.30667 5.11466,-1.30667 2.83733,0 4.96533,1.26933 2.16533,1.26933 3.32267,3.65867 1.15733,2.38933 1.15733,5.74932 v 1.08267 h -14.14932 q 0.14933,2.61333 1.41866,3.95733 1.30667,1.30667 3.43467,1.30667 1.60533,0 2.65066,-0.70934 1.08267,-0.74666 1.49333,-2.05333 l 4.89067,0.29867 q -0.82134,2.912 -3.248,4.59199 -2.38933,1.68 -5.824,1.68 z m -4.81599,-12.28265 h 9.22132 q -0.14933,-2.42667 -1.38133,-3.584 -1.232,-1.19467 -3.136,-1.19467 -1.90399,0 -3.17333,1.232 -1.232,1.232 -1.53066,3.54667 z"
         id="path10" />
      <path
         style="font-weight:600;-inkscape-font-specification:'Geist Semi-Bold';fill:#145cac"
         d="m 453.403,306.74179 q -2.09066,0 -3.65866,-0.896 -1.53067,-0.896 -2.38933,-2.50133 l -0.112,2.94933 h -4.55467 v -26.50664 h 4.77867 v 9.40799 q 0.82133,-1.38133 2.35199,-2.31466 1.53067,-0.97067 3.584,-0.97067 2.576,0 4.44266,1.30667 1.904,1.26933 2.912,3.62133 1.04533,2.31466 1.04533,5.48799 0,3.17333 -1.04533,5.52533 -1.008,2.31466 -2.912,3.62133 -1.86666,1.26933 -4.44266,1.26933 z m -1.08266,-3.88266 q 2.05333,0 3.28533,-1.71733 1.23199,-1.75467 1.23199,-4.816 0,-3.09866 -1.23199,-4.81599 -1.19467,-1.71734 -3.248,-1.71734 -1.53067,0 -2.65067,0.784 -1.08266,0.74667 -1.67999,2.20267 -0.56,1.456 -0.56,3.54666 0,2.016 0.56,3.50933 0.59733,1.456 1.67999,2.24 1.08267,0.784 2.61334,0.784 z m 19.27891,3.88266 q -3.136,0 -5.04,-1.41866 -1.90399,-1.456 -1.90399,-4.032 0,-2.576 1.60533,-4.032 1.60533,-1.456 4.89066,-2.09066 l 6.60799,-1.30667 q 0,-2.12799 -0.97066,-3.17333 -0.97067,-1.08266 -2.87467,-1.08266 -1.71733,0 -2.72533,0.82133 -0.97066,0.784 -1.344,2.27733 l -4.85332,-0.224 q 0.59733,-3.17333 2.91199,-4.85333 2.31467,-1.71733 6.01066,-1.71733 4.256,0 6.42133,2.16533 2.20267,2.128 2.20267,6.12266 v 7.24266 q 0,0.784 0.26133,1.08267 0.29867,0.29867 0.85867,0.29867 h 0.63466 v 3.47199 q -0.224,0.0747 -0.74666,0.112 -0.48534,0.0373 -1.008,0.0373 -1.232,0 -2.20267,-0.37334 -0.97066,-0.41066 -1.49333,-1.38133 -0.52267,-1.008 -0.52267,-2.72533 l 0.41067,0.29867 q -0.29867,1.30666 -1.30667,2.35199 -0.97066,1.008 -2.46399,1.568 -1.49334,0.56 -3.36,0.56 z m 0.97067,-3.47199 q 1.60533,0 2.76266,-0.63467 1.15733,-0.63467 1.792,-1.75467 0.63466,-1.12 0.63466,-2.65066 v -1.12 l -5.15199,1.04533 q -1.60533,0.336 -2.31467,1.008 -0.672,0.63467 -0.672,1.68 0,1.15733 0.74667,1.792 0.784,0.63467 2.20267,0.63467 z m 21.79512,3.02399 q -2.98666,0 -4.40533,-1.38133 -1.38133,-1.38133 -1.38133,-4.33066 v -18.89065 h 4.77866 v 18.44265 q 0,1.38133 0.59733,1.94133 0.59734,0.52267 1.86667,0.52267 h 2.8 v 3.69599 z m -8.92266,-16.23998 v -3.696 h 13.17866 v 3.696 z m 24.99835,16.68798 q -2.98666,0 -5.18933,-1.26933 -2.20266,-1.30667 -3.43466,-3.65866 -1.19466,-2.352 -1.19466,-5.488 0,-3.136 1.19466,-5.45066 1.232,-2.352 3.43466,-3.65866 2.20267,-1.30667 5.18933,-1.30667 2.53867,0 4.51733,0.896 1.97867,0.896 3.21067,2.576 1.26933,1.64266 1.568,4.03199 l -4.928,0.26134 q -0.29867,-1.904 -1.49333,-2.87467 -1.15733,-1.008 -2.87467,-1.008 -2.31466,0 -3.58399,1.75467 -1.26934,1.71733 -1.26934,4.77866 0,3.09867 1.26934,4.816 1.26933,1.71733 3.58399,1.71733 1.75467,0 2.912,-1.008 1.19467,-1.008 1.456,-3.136 l 4.928,0.224 q -0.29867,2.38933 -1.53067,4.144 -1.232,1.75466 -3.21066,2.72533 -1.97867,0.93333 -4.55467,0.93333 z m 12.61866,-0.448 v -26.50664 h 4.77866 v 11.12532 h -0.59733 q 0.29867,-1.71733 1.19467,-2.8 0.896,-1.11999 2.20266,-1.64266 1.30667,-0.56 2.87467,-0.56 2.20266,0 3.69599,0.97067 1.53067,0.93333 2.27733,2.65066 0.784,1.71733 0.784,3.95733 v 12.80532 h -4.77866 V 294.6458 q 0,-2.42666 -0.82133,-3.62133 -0.82133,-1.232 -2.576,-1.232 -1.94133,0 -3.09866,1.26934 -1.15734,1.26933 -1.15734,3.69599 v 11.53599 z"
         id="path11" />
    </g>
    <g
       id="layer3" />
    <g
       id="layer4" />
    <g
       id="layer5" />
    <g
       id="layer6" />
    <g
       id="layer7" />
    <g
       id="layer8" />
    <path
       id="path2-3-4"
       d="m 265.6651,280.4413 c 4.576,-11.68267 16.57333,-20.02 30.65467,-20.02 v 0 c 18.024,0 32.63466,13.65867 32.63466,30.50933 v 0 c 0,11.11867 -6.36266,19.012 -15.728,24.90934 v 0 c -6.69466,4.064 -2.04666,14.584 5.80667,10.63333 v 0 c 12.71866,-7.276 19.14266,-22.71867 19.02,-34.80133 v 0 c 0,-20.208 -16.604,-36.59067 -37.08533,-36.59067 v 0 c -16.50934,0 -30.49734,10.64667 -35.30267,25.36 m 1.02533,33.192 c 0,1.972 1.59734,3.57067 3.56934,3.57067 v 0 c 1.97333,0 3.572,-1.6 3.572,-3.57067 v 0 c 0,-1.972 -1.59867,-3.57067 -3.572,-3.57067 v 0 c -1.972,0 -3.56934,1.59867 -3.56934,3.57067 m 10.184,8.71867 c 0,2.54 2.05867,4.596 4.59734,4.596 v 0 c 2.53733,0 4.596,-2.056 4.596,-4.596 v 0 c 0,-2.53734 -2.05867,-4.59734 -4.596,-4.59734 v 0 c -2.53867,0 -4.59734,2.06 -4.59734,4.59734 m 16.34,3.36933 c 0,3.38933 2.74667,6.136 6.13467,6.136 v 0 c 3.38933,0 6.136,-2.74667 6.136,-6.136 v 0 c 0,-3.38667 -2.74667,-6.13333 -6.136,-6.13333 v 0 c -3.388,0 -6.13467,2.74666 -6.13467,6.13333"
       style="fill:url(#linearGradient10);stroke:none;stroke-width:1.33333" />
    <path
       style="font-weight:600;font-size:37.3333px;font-family:Geist;-inkscape-font-specification:'Geist Semi-Bold';fill:#04507d"
       d="m 289.1825,303.1918 v -26.50664 h 9.93065 q 4.85333,0 7.35466,1.71733 2.53867,1.71733 2.53867,5.45066 0,1.68 -0.70933,2.94933 -0.672,1.232 -2.016,1.94134 -1.30667,0.70933 -3.17333,0.78399 l -0.0373,-0.0747 q 3.39733,0.112 5.22667,1.86666 1.82933,1.71733 1.82933,4.592 0,3.65866 -2.53867,5.48799 -2.50133,1.792 -7.13066,1.792 z m 4.85332,-4.10666 h 6.19733 q 2.27733,0 3.584,-0.93333 1.344,-0.93334 1.344,-2.76267 0,-1.82933 -1.30667,-2.79999 -1.30666,-0.97067 -3.62133,-0.97067 h -6.19733 z m 0,-11.27466 h 4.928 q 2.38933,0 3.73333,-0.896 1.344,-0.896 1.344,-2.61333 0,-1.792 -1.30667,-2.65066 -1.30666,-0.85867 -3.77066,-0.85867 h -4.928 z"
       id="text5-7-0-9"
       aria-label="B" />
  </g>
</svg>
